<svg version="1.1" id="Layer_1" xmlns="http://www.w3.org/2000/svg" xmlns:xlink="http://www.w3.org/1999/xlink" x="0px" y="0px"
	 width="100%" viewBox="0 0 512 512" enable-background="new 0 0 512 512" xml:space="preserve">
<path fill="#50206C" opacity="1.000000" stroke="none" 
	d="
M513.000000,225.000000 
	C513.000000,237.354233 513.000000,249.708450 512.660889,262.475922 
	C510.665802,261.536743 508.878387,260.315918 507.373016,258.812622 
	C471.088287,222.577332 434.847595,186.297897 398.529175,150.096466 
	C396.859589,148.432251 394.540649,147.419449 392.289246,145.882172 
	C378.714905,124.051109 359.800049,112.108116 333.524597,112.089279 
	C328.636169,112.510056 324.085754,112.554253 319.762238,113.566986 
	C295.574280,119.232742 279.486816,134.201981 270.191162,157.015930 
	C264.529266,151.714508 259.263947,146.487869 253.856354,141.412857 
	C251.740036,139.426712 249.304367,137.780869 247.064301,135.618973 
	C239.566879,127.220596 232.019318,119.183273 224.295364,110.958130 
	C222.493988,112.641243 221.270065,113.720581 220.117599,114.871490 
	C207.864639,127.108101 195.647552,139.380844 183.338882,151.561096 
	C182.158356,152.729309 180.427124,153.341064 178.757080,153.933502 
	C164.541061,139.680557 150.519531,125.705215 136.806900,112.037758 
	C128.956161,119.888130 121.246239,127.597694 113.033852,135.809708 
	C127.170708,149.923904 141.612488,164.342560 156.395340,179.101715 
	C141.837112,193.646851 127.394936,208.076050 112.737350,222.720459 
	C120.136147,230.083405 127.313950,237.259583 134.554337,244.372009 
	C135.168304,244.975143 136.200272,245.152740 137.069183,245.855316 
	C138.213776,247.760513 139.154526,249.502228 140.469864,250.888550 
	C146.944962,257.712891 153.519409,264.442963 159.813797,271.464478 
	C126.057747,283.277893 107.412201,316.023560 115.066757,350.269745 
	C119.025650,367.981720 129.374359,381.396057 144.097351,392.035095 
	C145.514542,394.205109 146.729813,396.192017 148.329742,397.794922 
	C184.853317,434.386322 221.428177,470.926575 257.945160,507.524567 
	C259.532043,509.114960 260.658875,511.164398 262.000000,513.000000 
	C249.979111,513.000000 237.958206,513.000000 225.476944,512.592773 
	C222.059464,511.470947 219.138397,510.490814 216.139557,510.083740 
	C191.198135,506.698364 167.650650,498.790588 145.059113,487.968170 
	C124.817818,478.271606 105.918861,466.314178 89.573471,450.892761 
	C77.299492,439.312592 65.031631,427.493408 54.435703,414.423004 
	C39.420681,395.901489 27.581192,375.212952 18.914040,352.835541 
	C11.252671,333.054993 5.289151,312.861786 2.914644,291.702850 
	C2.806857,290.742371 1.661895,289.898285 1.000005,289.000000 
	C1.000000,267.979095 1.000000,246.958206 1.410859,225.472900 
	C2.207551,224.166855 2.793269,223.360229 2.947711,222.478088 
	C4.224494,215.185410 5.075095,207.800430 6.705448,200.590546 
	C12.280175,175.937515 21.103750,152.530777 33.701332,130.529800 
	C43.018394,114.258095 53.624523,98.898735 66.447151,85.297623 
	C75.987007,75.178596 86.251564,65.631218 96.949760,56.739304 
	C118.473938,38.849270 142.628571,25.316399 169.028091,15.903491 
	C186.489075,9.677673 204.301941,4.886212 222.798706,2.894804 
	C223.591278,2.809474 224.268845,1.655925 225.000000,0.999998 
	C246.020889,1.000000 267.041779,1.000000 288.526672,1.410930 
	C291.329712,2.244525 293.668182,2.670374 296.007904,3.089370 
	C326.454224,8.541728 355.486420,17.892368 382.588226,33.154633 
	C410.521942,48.885365 434.492920,69.304192 454.985413,93.712074 
	C472.199646,114.215340 485.788788,137.104721 495.491821,162.128967 
	C502.301941,179.692215 507.827850,197.639175 510.159546,216.452972 
	C510.521606,219.374451 512.024597,222.154526 513.000000,225.000000 
z"/>
<path fill="#3D1952" opacity="1.000000" stroke="none" 
	d="
M160.058792,271.206299 
	C153.519409,264.442963 146.944962,257.712891 140.469864,250.888550 
	C139.154526,249.502228 138.213776,247.760513 137.297363,245.585663 
	C151.649521,230.922913 165.804642,216.857132 180.268646,202.944458 
	C194.956787,217.570663 209.336014,232.043762 223.197403,245.995651 
	C231.547623,237.635742 239.280075,229.894318 247.371323,221.793701 
	C233.133896,207.740860 218.582230,193.377853 204.529388,179.507202 
	C218.942825,164.740128 232.978500,150.360092 247.014160,135.980042 
	C249.304367,137.780869 251.740036,139.426712 253.856354,141.412857 
	C259.263947,146.487869 264.529266,151.714508 270.101410,157.411774 
	C269.265503,164.141861 267.421661,170.315857 267.217957,176.543503 
	C265.978394,214.440536 295.032410,244.299698 334.259644,245.657471 
	C362.989258,244.263672 383.738251,230.968109 395.394897,204.941559 
	C404.285645,185.090591 402.409790,165.282379 392.524139,146.103256 
	C394.540649,147.419449 396.859589,148.432251 398.529175,150.096466 
	C434.847595,186.297897 471.088287,222.577332 507.373016,258.812622 
	C508.878387,260.315918 510.665802,261.536743 512.660889,262.944580 
	C513.000000,271.687561 513.000000,280.375122 512.605713,289.573120 
	C511.429016,294.045258 510.653015,298.008179 509.863342,301.968414 
	C504.223969,330.250153 495.110565,357.220703 480.911957,382.489258 
	C465.175537,410.494598 444.756866,434.540741 420.271576,455.047699 
	C399.712341,472.266418 376.789429,485.882751 351.712585,495.596497 
	C334.242706,502.363586 316.375305,507.762421 297.692566,510.166290 
	C294.722656,510.548401 291.893951,512.027832 289.000000,513.000000 
	C280.312439,513.000000 271.624878,513.000000 262.468658,513.000000 
	C260.658875,511.164398 259.532043,509.114960 257.945160,507.524567 
	C221.428177,470.926575 184.853317,434.386322 148.329742,397.794922 
	C146.729813,396.192017 145.514542,394.205109 144.437347,392.153076 
	C155.610916,398.346252 167.187241,402.230927 180.420898,401.911743 
	C184.334702,401.702972 187.862381,401.758820 191.248230,401.093201 
	C220.213333,395.399078 238.872635,378.023254 245.301956,349.487091 
	C251.529907,321.844696 242.112976,298.707153 219.700745,281.393219 
	C208.146255,272.467163 194.767410,267.961304 179.483459,268.531769 
	C172.703598,269.408600 166.381195,270.307434 160.058792,271.206299 
M334.320343,359.704742 
	C348.581024,374.142487 362.841705,388.580231 376.761108,402.672455 
	C385.044159,394.258453 392.813660,386.366119 401.137146,377.911072 
	C387.111725,363.911224 372.684265,349.510071 357.371674,334.225433 
	C371.921417,319.773987 386.398682,305.394531 400.382538,291.505127 
	C392.746704,283.871521 385.017334,276.144409 376.794617,267.924072 
	C362.745697,282.131439 348.350647,296.688843 333.318695,310.986572 
	C319.036346,296.614380 304.753998,282.242188 290.816864,268.217377 
	C282.663971,276.378387 274.947754,284.102325 266.837555,292.220612 
	C280.995819,306.352509 295.460510,320.790253 310.344574,335.646576 
	C295.815247,350.164215 281.378937,364.588867 267.401459,378.555084 
	C275.181335,386.345490 282.876312,394.050873 291.016266,402.201874 
	C292.242218,400.845551 293.715973,399.056427 295.351807,397.430420 
	C308.204071,384.655487 321.087402,371.911804 334.320343,359.704742 
z"/>
<path fill="#000000" opacity="1.000000" stroke="none" 
	d="
M1.000005,289.468658 
	C1.661895,289.898285 2.806857,290.742371 2.914644,291.702850 
	C5.289151,312.861786 11.252671,333.054993 18.914040,352.835541 
	C27.581192,375.212952 39.420681,395.901489 54.435703,414.423004 
	C65.031631,427.493408 77.299492,439.312592 89.573471,450.892761 
	C105.918861,466.314178 124.817818,478.271606 145.059113,487.968170 
	C167.650650,498.790588 191.198135,506.698364 216.139557,510.083740 
	C219.138397,510.490814 222.059464,511.470947 225.008286,512.592773 
	C150.406296,513.000000 75.812599,513.000000 1.000000,513.000000 
	C1.000000,438.645905 1.000000,364.291626 1.000005,289.468658 
z"/>
<path fill="#000000" opacity="1.000000" stroke="none" 
	d="
M224.531342,0.999998 
	C224.268845,1.655925 223.591278,2.809474 222.798706,2.894804 
	C204.301941,4.886212 186.489075,9.677673 169.028091,15.903491 
	C142.628571,25.316399 118.473938,38.849270 96.949760,56.739304 
	C86.251564,65.631218 75.987007,75.178596 66.447151,85.297623 
	C53.624523,98.898735 43.018394,114.258095 33.701332,130.529800 
	C21.103750,152.530777 12.280175,175.937515 6.705448,200.590546 
	C5.075095,207.800430 4.224494,215.185410 2.947711,222.478088 
	C2.793269,223.360229 2.207551,224.166855 1.410859,225.004242 
	C1.000000,150.406296 1.000000,75.812576 1.000000,1.000000 
	C75.354088,1.000000 149.708389,1.000000 224.531342,0.999998 
z"/>
<path fill="#000000" opacity="1.000000" stroke="none" 
	d="
M513.000000,224.531342 
	C512.024597,222.154526 510.521606,219.374451 510.159546,216.452972 
	C507.827850,197.639175 502.301941,179.692215 495.491821,162.128967 
	C485.788788,137.104721 472.199646,114.215340 454.985413,93.712074 
	C434.492920,69.304192 410.521942,48.885365 382.588226,33.154633 
	C355.486420,17.892368 326.454224,8.541728 296.007904,3.089370 
	C293.668182,2.670374 291.329712,2.244525 288.995331,1.410930 
	C363.593719,1.000000 438.187408,1.000000 513.000000,1.000000 
	C513.000000,75.354088 513.000000,149.708389 513.000000,224.531342 
z"/>
<path fill="#000000" opacity="1.000000" stroke="none" 
	d="
M289.468658,513.000000 
	C291.893951,512.027832 294.722656,510.548401 297.692566,510.166290 
	C316.375305,507.762421 334.242706,502.363586 351.712585,495.596497 
	C376.789429,485.882751 399.712341,472.266418 420.271576,455.047699 
	C444.756866,434.540741 465.175537,410.494598 480.911957,382.489258 
	C495.110565,357.220703 504.223969,330.250153 509.863342,301.968414 
	C510.653015,298.008179 511.429016,294.045258 512.605713,290.041779 
	C513.000000,364.260529 513.000000,438.521088 513.000000,513.000000 
	C438.645905,513.000000 364.291626,513.000000 289.468658,513.000000 
z"/>
<path fill="#DFDFE1" opacity="1.000000" stroke="none" 
	d="
M392.289246,145.882172 
	C402.409790,165.282379 404.285645,185.090591 395.394897,204.941559 
	C383.738251,230.968109 362.989258,244.263672 334.282898,245.156464 
	C333.958038,233.733582 333.960022,222.976212 334.372925,212.124588 
	C336.742828,211.719299 338.723236,211.505997 340.657257,211.081467 
	C353.676300,208.223648 362.277466,200.213242 365.790070,187.577225 
	C369.489899,174.267624 365.573486,162.735260 355.302704,153.430328 
	C349.244995,147.942261 341.729828,146.246445 333.971802,144.726196 
	C333.978333,133.549728 333.972839,122.854820 333.967346,112.159904 
	C359.800049,112.108116 378.714905,124.051109 392.289246,145.882172 
z"/>
<path fill="#FEFDFE" opacity="1.000000" stroke="none" 
	d="
M333.962006,212.218842 
	C333.960022,222.976212 333.958038,233.733582 333.932770,244.991959 
	C295.032410,244.299698 265.978394,214.440536 267.217957,176.543503 
	C267.421661,170.315857 269.265503,164.141861 270.441101,157.547211 
	C279.486816,134.201981 295.574280,119.232742 319.762238,113.566986 
	C324.085754,112.554253 328.636169,112.510056 333.524597,112.089279 
	C333.972839,122.854820 333.978333,133.549728 333.576630,144.788025 
	C322.646942,145.935852 313.793945,150.009109 307.436920,158.522324 
	C299.631927,168.974655 298.218262,180.553970 303.569519,192.389496 
	C309.381348,205.243713 319.968048,211.527100 333.962006,212.218842 
z"/>
<path fill="#FEFDFE" opacity="1.000000" stroke="none" 
	d="
M179.969040,401.841888 
	C167.187241,402.230927 155.610916,398.346252 144.414597,391.791077 
	C129.374359,381.396057 119.025650,367.981720 115.066757,350.269745 
	C107.412201,316.023560 126.057747,283.277893 159.813797,271.464478 
	C166.381195,270.307434 172.703598,269.408600 179.500839,269.029968 
	C179.971756,280.297455 179.967834,291.044678 179.544189,301.861023 
	C176.504791,302.307831 173.820923,302.439423 171.275848,303.103180 
	C155.057877,307.333221 144.526932,323.667450 147.128693,340.540894 
	C149.679947,357.086853 164.876541,368.842285 179.981247,369.296692 
	C179.984802,380.465149 179.976929,391.153503 179.969040,401.841888 
z"/>
<path fill="#DFDFE1" opacity="1.000000" stroke="none" 
	d="
M247.064316,135.618988 
	C232.978500,150.360092 218.942825,164.740128 204.529388,179.507202 
	C218.582230,193.377853 233.133896,207.740860 247.371323,221.793701 
	C239.280075,229.894318 231.547623,237.635742 223.197403,245.995651 
	C209.336014,232.043762 194.956787,217.570663 180.271774,202.489136 
	C179.980804,187.751740 180.032684,173.622589 179.963364,159.494034 
	C179.954727,157.731445 179.304489,155.972031 178.951553,154.211136 
	C180.427124,153.341064 182.158356,152.729309 183.338882,151.561096 
	C195.647552,139.380844 207.864639,127.108101 220.117599,114.871490 
	C221.270065,113.720581 222.493988,112.641243 224.295364,110.958130 
	C232.019318,119.183273 239.566879,127.220596 247.064316,135.618988 
z"/>
<path fill="#FEFEFE" opacity="1.000000" stroke="none" 
	d="
M178.757080,153.933502 
	C179.304489,155.972031 179.954727,157.731445 179.963364,159.494034 
	C180.032684,173.622589 179.980804,187.751740 179.962891,202.336029 
	C165.804642,216.857132 151.649521,230.922913 137.266235,245.258347 
	C136.200272,245.152740 135.168304,244.975143 134.554337,244.372009 
	C127.313950,237.259583 120.136147,230.083405 112.737350,222.720459 
	C127.394936,208.076050 141.837112,193.646851 156.395340,179.101715 
	C141.612488,164.342560 127.170708,149.923904 113.033852,135.809708 
	C121.246239,127.597694 128.956161,119.888130 136.806900,112.037758 
	C150.519531,125.705215 164.541061,139.680557 178.757080,153.933502 
z"/>
<path fill="#DFDFE1" opacity="1.000000" stroke="none" 
	d="
M180.420898,401.911743 
	C179.976929,391.153503 179.984802,380.465149 180.304352,369.068542 
	C181.275772,368.287537 181.933823,368.187531 182.595535,368.145874 
	C203.037399,366.858856 217.361542,347.084625 212.177536,327.302155 
	C208.214279,312.178101 196.926193,303.238983 179.963898,301.791901 
	C179.967834,291.044678 179.971756,280.297455 179.958313,269.052002 
	C194.767410,267.961304 208.146255,272.467163 219.700745,281.393219 
	C242.112976,298.707153 251.529907,321.844696 245.301956,349.487091 
	C238.872635,378.023254 220.213333,395.399078 191.248230,401.093201 
	C187.862381,401.758820 184.334702,401.702972 180.420898,401.911743 
z"/>
<path fill="#DFDEE1" opacity="1.000000" stroke="none" 
	d="
M333.955627,311.246216 
	C348.350647,296.688843 362.745697,282.131439 376.794617,267.924072 
	C385.017334,276.144409 392.746704,283.871521 400.382538,291.505127 
	C386.398682,305.394531 371.921417,319.773987 357.371674,334.225433 
	C372.684265,349.510071 387.111725,363.911224 401.137146,377.911072 
	C392.813660,386.366119 385.044159,394.258453 376.761108,402.672455 
	C362.841705,388.580231 348.581024,374.142487 334.151062,358.952820 
	C333.973053,342.549347 333.964355,326.897797 333.955627,311.246216 
z"/>
<path fill="#FEFEFE" opacity="1.000000" stroke="none" 
	d="
M333.637177,311.116394 
	C333.964355,326.897797 333.973053,342.549347 333.971436,358.679688 
	C321.087402,371.911804 308.204071,384.655487 295.351807,397.430420 
	C293.715973,399.056427 292.242218,400.845551 291.016266,402.201874 
	C282.876312,394.050873 275.181335,386.345490 267.401459,378.555084 
	C281.378937,364.588867 295.815247,350.164215 310.344574,335.646576 
	C295.460510,320.790253 280.995819,306.352509 266.837555,292.220612 
	C274.947754,284.102325 282.663971,276.378387 290.816864,268.217377 
	C304.753998,282.242188 319.036346,296.614380 333.637177,311.116394 
z"/>
<path fill="#3E1A53" opacity="1.000000" stroke="none" 
	d="
M334.372925,212.124588 
	C319.968048,211.527100 309.381348,205.243713 303.569519,192.389496 
	C298.218262,180.553970 299.631927,168.974655 307.436920,158.522324 
	C313.793945,150.009109 322.646942,145.935852 333.564636,145.269592 
	C341.729828,146.246445 349.244995,147.942261 355.302704,153.430328 
	C365.573486,162.735260 369.489899,174.267624 365.790070,187.577225 
	C362.277466,200.213242 353.676300,208.223648 340.657257,211.081467 
	C338.723236,211.505997 336.742828,211.719299 334.372925,212.124588 
z"/>
<path fill="#3E1A53" opacity="1.000000" stroke="none" 
	d="
M179.544189,301.861023 
	C196.926193,303.238983 208.214279,312.178101 212.177536,327.302155 
	C217.361542,347.084625 203.037399,366.858856 182.595535,368.145874 
	C181.933823,368.187531 181.275772,368.287537 180.292908,368.588501 
	C164.876541,368.842285 149.679947,357.086853 147.128693,340.540894 
	C144.526932,323.667450 155.057877,307.333221 171.275848,303.103180 
	C173.820923,302.439423 176.504791,302.307831 179.544189,301.861023 
z"/>
</svg>